<svg width="25" height="25" viewBox="0 0 25 25" fill="none" xmlns="http://www.w3.org/2000/svg">
<g id="chat">
<mask id="mask0_4_125" style="mask-type:alpha" maskUnits="userSpaceOnUse" x="0" y="0" width="25" height="25">
<rect id="Bounding box" x="0.5" y="0.5" width="24" height="24" fill="#D9D9D9"/>
</mask>
<g mask="url(#mask0_4_125)">
<path id="chat_2" d="M6.5385 18L4.5365 20.0018C4.252 20.2864 3.92475 20.3509 3.55475 20.1952C3.18492 20.0394 3 19.7589 3 19.3538V4.80775C3 4.30258 3.175 3.875 3.525 3.525C3.875 3.175 4.30258 3 4.80775 3H20.1923C20.6974 3 21.125 3.175 21.475 3.525C21.825 3.875 22 4.30258 22 4.80775V16.1923C22 16.6974 21.825 17.125 21.475 17.475C21.125 17.825 20.6974 18 20.1923 18H6.5385ZM5.9 16.5H20.1923C20.2693 16.5 20.3398 16.4679 20.4038 16.4038C20.4679 16.3398 20.5 16.2692 20.5 16.1923V4.80775C20.5 4.73075 20.4679 4.66025 20.4038 4.59625C20.3398 4.53208 20.2693 4.5 20.1923 4.5H4.80775C4.73075 4.5 4.66025 4.53208 4.59625 4.59625C4.53208 4.66025 4.5 4.73075 4.5 4.80775V17.8848L5.9 16.5ZM7.5 14.25H13.5C13.7128 14.25 13.891 14.1782 14.0345 14.0345C14.1782 13.891 14.25 13.7128 14.25 13.5C14.25 13.2872 14.1782 13.109 14.0345 12.9655C13.891 12.8218 13.7128 12.75 13.5 12.75H7.5C7.28717 12.75 7.109 12.8218 6.9655 12.9655C6.82183 13.109 6.75 13.2872 6.75 13.5C6.75 13.7128 6.82183 13.891 6.9655 14.0345C7.109 14.1782 7.28717 14.25 7.5 14.25ZM7.5 11.25H17.5C17.7128 11.25 17.891 11.1782 18.0345 11.0345C18.1782 10.891 18.25 10.7128 18.25 10.5C18.25 10.2872 18.1782 10.109 18.0345 9.9655C17.891 9.82183 17.7128 9.75 17.5 9.75H7.5C7.28717 9.75 7.109 9.82183 6.9655 9.9655C6.82183 10.109 6.75 10.2872 6.75 10.5C6.75 10.7128 6.82183 10.891 6.9655 11.0345C7.109 11.1782 7.28717 11.25 7.5 11.25ZM7.5 8.25H17.5C17.7128 8.25 17.891 8.17817 18.0345 8.0345C18.1782 7.891 18.25 7.71283 18.25 7.5C18.25 7.28717 18.1782 7.109 18.0345 6.9655C17.891 6.82183 17.7128 6.75 17.5 6.75H7.5C7.28717 6.75 7.109 6.82183 6.9655 6.9655C6.82183 7.109 6.75 7.28717 6.75 7.5C6.75 7.71283 6.82183 7.891 6.9655 8.0345C7.109 8.17817 7.28717 8.25 7.5 8.25Z" fill="#1C1B1F"/>
</g>
</g>
</svg>
