<svg width="24" height="24" viewBox="0 0 24 24" fill="none" xmlns="http://www.w3.org/2000/svg">
<g id="import_contacts">
<mask id="mask0_11_274" style="mask-type:alpha" maskUnits="userSpaceOnUse" x="0" y="0" width="24" height="24">
<rect id="Bounding box" width="24" height="24" fill="#D9D9D9"/>
</mask>
<g mask="url(#mask0_11_274)">
<path id="import_contacts_2" d="M6.5 16.0192C7.32817 16.0192 8.13392 16.1132 8.91725 16.301C9.70058 16.4888 10.4782 16.7834 11.25 17.1847V7.35374C10.5475 6.89608 9.78725 6.55283 8.96925 6.32399C8.15125 6.09516 7.32817 5.98074 6.5 5.98074C5.9 5.98074 5.33942 6.02783 4.81825 6.12199C4.29708 6.21633 3.7615 6.37049 3.2115 6.58449C3.13467 6.61016 3.08017 6.64708 3.048 6.69524C3.016 6.74324 3 6.79608 3 6.85374V16.3115C3 16.4013 3.03208 16.4671 3.09625 16.5087C3.16025 16.5504 3.23075 16.5552 3.30775 16.523C3.78208 16.3615 4.28267 16.2372 4.8095 16.15C5.3365 16.0628 5.9 16.0192 6.5 16.0192ZM12.75 17.1847C13.5218 16.7834 14.2994 16.4888 15.0828 16.301C15.8661 16.1132 16.6718 16.0192 17.5 16.0192C18.1 16.0192 18.6635 16.0628 19.1905 16.15C19.7173 16.2372 20.2179 16.3615 20.6923 16.523C20.7693 16.5552 20.8398 16.5504 20.9038 16.5087C20.9679 16.4671 21 16.4013 21 16.3115V6.85374C21 6.79608 20.984 6.74483 20.952 6.69999C20.9198 6.65516 20.8653 6.61666 20.7885 6.58449C20.2385 6.37049 19.7029 6.21633 19.1818 6.12199C18.6606 6.02783 18.1 5.98074 17.5 5.98074C16.6718 5.98074 15.8487 6.09516 15.0307 6.32399C14.2127 6.55283 13.4525 6.89608 12.75 7.35374V17.1847ZM12 18.9652C11.8052 18.9652 11.6228 18.9409 11.453 18.8922C11.283 18.8436 11.1224 18.7788 10.9713 18.698C10.2828 18.3083 9.5625 18.0144 8.8105 17.8162C8.05867 17.6182 7.2885 17.5192 6.5 17.5192C5.88983 17.5192 5.2905 17.5868 4.702 17.722C4.1135 17.8573 3.54617 18.0564 3 18.3192C2.64367 18.4832 2.30458 18.4572 1.98275 18.2412C1.66092 18.0252 1.5 17.7192 1.5 17.323V6.46549C1.5 6.24999 1.5555 6.04774 1.6665 5.85874C1.77733 5.66958 1.93725 5.53333 2.14625 5.44999C2.82308 5.12049 3.5285 4.87658 4.2625 4.71824C4.9965 4.55991 5.74233 4.48074 6.5 4.48074C7.473 4.48074 8.42367 4.61374 9.352 4.87974C10.2802 5.14591 11.1628 5.53858 12 6.05774C12.8372 5.53858 13.7198 5.14591 14.648 4.87974C15.5763 4.61374 16.527 4.48074 17.5 4.48074C18.2577 4.48074 19.0035 4.55991 19.7375 4.71824C20.4715 4.87658 21.1769 5.12049 21.8538 5.44999C22.0627 5.53333 22.2227 5.66958 22.3335 5.85874C22.4445 6.04774 22.5 6.24999 22.5 6.46549V17.323C22.5 17.7192 22.3327 18.0221 21.998 18.2317C21.6633 18.4412 21.3114 18.464 20.9423 18.3C20.4026 18.0435 19.8433 17.8492 19.2645 17.7172C18.6857 17.5852 18.0975 17.5192 17.5 17.5192C16.7115 17.5192 15.9413 17.6182 15.1895 17.8162C14.4375 18.0144 13.7173 18.3083 13.0288 18.698C12.8776 18.7788 12.717 18.8436 12.547 18.8922C12.3772 18.9409 12.1948 18.9652 12 18.9652Z" fill="black"/>
</g>
</g>
</svg>
